#define symbl_width 576
#define symbl_height 40
static unsigned char symbl_bits[] = {
   0x00, 0x00, 0x00, 0x00, 0x00, 0x00, 0x00, 0x00, 0x00, 0x00, 0x00, 0x00,
   0x00, 0x00, 0x00, 0x00, 0x00, 0x00, 0x00, 0x00, 0x00, 0x00, 0x00, 0x00,
   0x00, 0x00, 0x00, 0x00, 0x00, 0x00, 0x00, 0x00, 0x00, 0x00, 0x00, 0x00,
   0x00, 0x00, 0x00, 0x00, 0x00, 0x00, 0x00, 0x00, 0x00, 0x00, 0x00, 0x00,
   0x00, 0x00, 0x00, 0x00, 0x00, 0x00, 0x00, 0x00, 0x00, 0x00, 0x00, 0x00,
   0x00, 0x00, 0x00, 0x00, 0x00, 0x00, 0x00, 0x00, 0x00, 0x00, 0x00, 0x00,
   0x00, 0x00, 0x00, 0x00, 0x00, 0x00, 0x00, 0x00, 0x00, 0x00, 0x00, 0x00,
   0x00, 0x00, 0x00, 0x00, 0x00, 0x00, 0x00, 0x00, 0x00, 0x00, 0x00, 0x00,
   0x00, 0x00, 0x00, 0x00, 0x00, 0x00, 0x00, 0x00, 0x00, 0x00, 0x00, 0x00,
   0x00, 0x00, 0x00, 0x00, 0x00, 0x00, 0x00, 0x00, 0x00, 0x00, 0x00, 0x00,
   0x9e, 0x99, 0xc7, 0x87, 0x67, 0xc6, 0x03, 0x33, 0xf3, 0x98, 0x01, 0x00,
   0x00, 0x00, 0x00, 0x00, 0x00, 0x00, 0x00, 0x00, 0x00, 0x00, 0x00, 0x00,
   0x00, 0x00, 0x00, 0x00, 0x00, 0x00, 0x00, 0x00, 0x00, 0x00, 0x00, 0x00,
   0x00, 0x00, 0x00, 0x00, 0x00, 0x00, 0x00, 0x00, 0x00, 0x00, 0x00, 0x00,
   0x00, 0x00, 0x00, 0x00, 0x00, 0x00, 0x00, 0x00, 0x00, 0x00, 0x00, 0x00,
   0x00, 0x00, 0x00, 0x00, 0x00, 0x00, 0x00, 0x00, 0x00, 0x00, 0x00, 0x00,
   0xbf, 0x99, 0xcf, 0xcf, 0x6f, 0xe6, 0x07, 0x33, 0xfb, 0x99, 0x01, 0x00,
   0x00, 0x00, 0x00, 0x00, 0x00, 0x00, 0x00, 0x00, 0x00, 0x00, 0x00, 0x00,
   0x00, 0x00, 0x00, 0x00, 0x00, 0x00, 0x00, 0x08, 0x00, 0x00, 0x1c, 0x00,
   0x00, 0x08, 0x00, 0x00, 0x08, 0x00, 0x00, 0x7f, 0x00, 0x80, 0xff, 0x00,
   0x00, 0x00, 0x00, 0x00, 0x00, 0x00, 0x00, 0x08, 0x00, 0x00, 0x1c, 0x00,
   0x00, 0x08, 0x00, 0x00, 0x08, 0x00, 0x00, 0x7f, 0x00, 0x80, 0xff, 0x00,
   0xb3, 0x8d, 0xd9, 0xcc, 0x6c, 0x63, 0x06, 0xb3, 0x99, 0x99, 0x01, 0x00,
   0x00, 0x00, 0x00, 0x00, 0x00, 0x00, 0x00, 0x00, 0x00, 0x00, 0x00, 0x00,
   0x00, 0x08, 0x00, 0x00, 0x00, 0x00, 0x00, 0x1c, 0x00, 0x00, 0x3e, 0x00,
   0x00, 0x14, 0x00, 0x00, 0x14, 0x00, 0x00, 0x3e, 0x00, 0x00, 0x7f, 0x00,
   0x00, 0x08, 0x00, 0x00, 0x00, 0x00, 0x00, 0x1c, 0x00, 0x00, 0x3e, 0x00,
   0x00, 0x1c, 0x00, 0x00, 0x1c, 0x00, 0x00, 0x3e, 0x00, 0x00, 0x7f, 0x00,
   0xb3, 0x87, 0xd9, 0xcc, 0xec, 0x61, 0x06, 0xf3, 0x98, 0x99, 0x01, 0x00,
   0x00, 0x00, 0x00, 0x00, 0x00, 0x00, 0x00, 0x00, 0x00, 0x00, 0x00, 0x00,
   0x00, 0x14, 0x00, 0x50, 0x41, 0x05, 0x00, 0x3e, 0x00, 0x00, 0x7f, 0x00,
   0x00, 0x2a, 0x00, 0x00, 0x2a, 0x00, 0x00, 0x1c, 0x00, 0x00, 0x3e, 0x00,
   0x00, 0x1c, 0x00, 0xf0, 0xc1, 0x07, 0x00, 0x3e, 0x00, 0x00, 0x7f, 0x00,
   0x00, 0x3e, 0x00, 0x00, 0x3e, 0x00, 0x00, 0x1c, 0x00, 0x00, 0x3e, 0x00,
   0xbf, 0x87, 0xd9, 0xc7, 0xef, 0x61, 0x06, 0xf3, 0x98, 0x99, 0x01, 0x00,
   0x00, 0x00, 0x00, 0x00, 0x00, 0x00, 0x00, 0x00, 0x00, 0x00, 0x00, 0x00,
   0x00, 0x2a, 0x00, 0xa8, 0xa2, 0x0a, 0x00, 0x7f, 0x00, 0x00, 0x7f, 0x00,
   0x00, 0x55, 0x00, 0x00, 0x55, 0x00, 0x00, 0x08, 0x00, 0x00, 0x1c, 0x00,
   0x00, 0x3e, 0x00, 0xf8, 0xe3, 0x0f, 0x00, 0x7f, 0x00, 0x00, 0x7f, 0x00,
   0x00, 0x7f, 0x00, 0x00, 0x7f, 0x00, 0x00, 0x08, 0x00, 0x00, 0x1c, 0x00,
   0xbf, 0x87, 0xd9, 0xcc, 0xef, 0x61, 0x06, 0xf3, 0x98, 0x99, 0x01, 0x00,
   0x00, 0x00, 0x00, 0x00, 0x00, 0x00, 0x00, 0x00, 0x00, 0x00, 0x00, 0x00,
   0x00, 0x55, 0x00, 0x54, 0x55, 0x15, 0x80, 0xff, 0x00, 0x00, 0x7f, 0x00,
   0x80, 0xaa, 0x00, 0x80, 0xaa, 0x00, 0xe0, 0x88, 0x03, 0x70, 0x08, 0x07,
   0x00, 0x7f, 0x00, 0xfc, 0xf7, 0x1f, 0x80, 0xff, 0x00, 0x00, 0x7f, 0x00,
   0x80, 0xff, 0x00, 0x80, 0xff, 0x00, 0xe0, 0x88, 0x03, 0x70, 0x08, 0x07,
   0xb3, 0x8d, 0xd9, 0xcc, 0x6c, 0x63, 0x37, 0xb3, 0x99, 0x99, 0x01, 0x00,
   0x00, 0x00, 0x00, 0x00, 0x00, 0x00, 0x00, 0x00, 0x00, 0x00, 0x00, 0x00,
   0x80, 0xaa, 0x00, 0xa8, 0xaa, 0x0a, 0xc0, 0xff, 0x01, 0x00, 0x7f, 0x00,
   0x40, 0x55, 0x01, 0x40, 0x55, 0x01, 0xf0, 0xc9, 0x07, 0xf8, 0x88, 0x0f,
   0x80, 0xff, 0x00, 0xfc, 0xff, 0x1f, 0xc0, 0xff, 0x01, 0x00, 0x7f, 0x00,
   0xc0, 0xff, 0x01, 0xc0, 0xff, 0x01, 0xf0, 0xc9, 0x07, 0xf8, 0x88, 0x1f,
   0xb3, 0x99, 0xcf, 0xcf, 0x6c, 0xe6, 0xf3, 0x33, 0xfb, 0xf9, 0x01, 0x00,
   0x00, 0x00, 0x00, 0x00, 0x00, 0x00, 0x00, 0x00, 0x00, 0x00, 0x00, 0x00,
   0x40, 0x55, 0x01, 0x54, 0x55, 0x15, 0xe0, 0xff, 0x03, 0x70, 0x3e, 0x07,
   0xa0, 0xaa, 0x02, 0xa0, 0xaa, 0x02, 0xf8, 0xff, 0x0f, 0xfc, 0xc9, 0x1f,
   0xc0, 0xff, 0x01, 0xfc, 0xff, 0x1f, 0xe0, 0xff, 0x03, 0x70, 0x3e, 0x07,
   0xe0, 0xff, 0x03, 0xe0, 0xff, 0x03, 0xf8, 0xff, 0x0f, 0xfc, 0xc9, 0x1f,
   0xb3, 0x99, 0xc7, 0xc7, 0x6c, 0xc6, 0xe7, 0x31, 0xf3, 0xf0, 0x00, 0x00,
   0x00, 0x00, 0x00, 0x00, 0x00, 0x00, 0x00, 0x00, 0x00, 0x00, 0x00, 0x00,
   0xa0, 0xaa, 0x02, 0xa8, 0xaa, 0x0a, 0xf0, 0xff, 0x07, 0xf8, 0x9c, 0x0f,
   0x50, 0x55, 0x05, 0x50, 0x55, 0x05, 0xf8, 0xff, 0x0f, 0xfc, 0xff, 0x1f,
   0xe0, 0xff, 0x03, 0xfc, 0xff, 0x1f, 0xf0, 0xff, 0x07, 0xf8, 0x9c, 0x0f,
   0xf0, 0xff, 0x07, 0xf0, 0xff, 0x07, 0xf8, 0xff, 0x0f, 0xfc, 0xff, 0x1f,
   0x00, 0x00, 0x00, 0x00, 0x00, 0x00, 0x00, 0x00, 0x00, 0x00, 0x00, 0x00,
   0x00, 0x00, 0x00, 0x00, 0x00, 0x00, 0x00, 0x00, 0x00, 0x00, 0x00, 0x00,
   0x50, 0x55, 0x05, 0x54, 0x55, 0x15, 0xf8, 0xff, 0x0f, 0xfc, 0xc9, 0x1f,
   0xa8, 0xaa, 0x0a, 0xa8, 0xaa, 0x0a, 0xf8, 0xff, 0x0f, 0xfc, 0xff, 0x1f,
   0xf0, 0xff, 0x07, 0xfc, 0xff, 0x1f, 0xf8, 0xff, 0x0f, 0xfc, 0xc9, 0x1f,
   0xf8, 0xff, 0x0f, 0xf8, 0xff, 0x0f, 0xf8, 0xff, 0x0f, 0xfc, 0xff, 0x1f,
   0x00, 0x00, 0x00, 0x00, 0x00, 0x00, 0x00, 0x00, 0x00, 0x00, 0x00, 0x00,
   0x00, 0x00, 0x00, 0x00, 0x00, 0x00, 0x00, 0x00, 0x00, 0x00, 0x00, 0x00,
   0xa8, 0xaa, 0x0a, 0xa8, 0xaa, 0x0a, 0xf8, 0xff, 0x0f, 0xfc, 0xff, 0x1f,
   0x50, 0x55, 0x05, 0x54, 0x55, 0x15, 0xf8, 0xff, 0x0f, 0xfc, 0xc9, 0x1f,
   0xf8, 0xff, 0x0f, 0xf8, 0xff, 0x0f, 0xf8, 0xff, 0x0f, 0xfc, 0xff, 0x1f,
   0xf0, 0xff, 0x07, 0xfc, 0xff, 0x1f, 0xf8, 0xff, 0x0f, 0xfc, 0xc9, 0x0f,
   0xb3, 0x19, 0x9e, 0xcf, 0x6c, 0xe6, 0xe3, 0x31, 0xf3, 0xf0, 0x00, 0x00,
   0x00, 0x00, 0x00, 0x00, 0x00, 0x00, 0x00, 0x00, 0x00, 0x00, 0x00, 0x00,
   0x50, 0x55, 0x05, 0x50, 0x55, 0x05, 0xf8, 0xff, 0x0f, 0xfc, 0xff, 0x1f,
   0xa0, 0xaa, 0x02, 0xa8, 0xaa, 0x0a, 0xf0, 0xff, 0x07, 0xf8, 0x9c, 0x0f,
   0xf0, 0xff, 0x07, 0xf0, 0xff, 0x07, 0xf8, 0xff, 0x0f, 0xfc, 0xff, 0x1f,
   0xe0, 0xff, 0x03, 0xfc, 0xff, 0x1f, 0xf0, 0xff, 0x07, 0xf8, 0x9c, 0x0f,
   0xb3, 0x19, 0xdf, 0xcf, 0x6c, 0xc6, 0xf7, 0x33, 0xfb, 0xf9, 0x01, 0x00,
   0x00, 0x00, 0x00, 0x00, 0x00, 0x00, 0x00, 0x00, 0x00, 0x00, 0x00, 0x00,
   0xa0, 0xaa, 0x02, 0xa0, 0xaa, 0x02, 0xf8, 0xff, 0x0f, 0xfc, 0xc9, 0x1f,
   0x40, 0x55, 0x01, 0x54, 0x55, 0x15, 0xe0, 0xff, 0x03, 0x70, 0x3e, 0x07,
   0xe0, 0xff, 0x03, 0xe0, 0xff, 0x03, 0xf8, 0xff, 0x0f, 0xfc, 0xc9, 0x1f,
   0xc0, 0xff, 0x01, 0xfc, 0xff, 0x1f, 0xe0, 0xff, 0x03, 0x70, 0x3e, 0x07,
   0x33, 0x9b, 0xd9, 0xcc, 0xcc, 0xe6, 0x36, 0x63, 0x9b, 0x99, 0x01, 0x00,
   0x00, 0x00, 0x00, 0x00, 0x00, 0x00, 0x00, 0x00, 0x00, 0x00, 0x00, 0x00,
   0x40, 0x55, 0x01, 0x40, 0x55, 0x01, 0xf0, 0xc9, 0x07, 0xf8, 0x88, 0x0f,
   0x80, 0xaa, 0x00, 0xa8, 0xaa, 0x0a, 0xc0, 0xff, 0x01, 0x00, 0x7f, 0x00,
   0xc0, 0xff, 0x01, 0xc0, 0xff, 0x01, 0xf0, 0xc9, 0x07, 0xf8, 0x88, 0x0f,
   0x80, 0xff, 0x00, 0xfc, 0xff, 0x1f, 0xc0, 0xff, 0x01, 0x00, 0x7f, 0x00,
   0x3f, 0x9e, 0xd9, 0xcc, 0x8f, 0x67, 0x36, 0xc0, 0x9b, 0x99, 0x01, 0x00,
   0x00, 0x00, 0x00, 0x00, 0x00, 0x00, 0x00, 0x00, 0x00, 0x00, 0x00, 0x00,
   0x80, 0xaa, 0x00, 0x80, 0xaa, 0x00, 0xe0, 0x88, 0x03, 0x70, 0x08, 0x07,
   0x00, 0x55, 0x00, 0x54, 0x55, 0x15, 0x80, 0xff, 0x00, 0x00, 0x7f, 0x00,
   0x80, 0xff, 0x00, 0x80, 0xff, 0x00, 0xe0, 0x88, 0x03, 0x70, 0x08, 0x07,
   0x00, 0x7f, 0x00, 0xfc, 0xf7, 0x1f, 0x80, 0xff, 0x00, 0x00, 0x7f, 0x00,
   0x3f, 0x9e, 0x99, 0xcf, 0x8f, 0x67, 0x36, 0xc0, 0x9b, 0x99, 0x01, 0x00,
   0x00, 0x00, 0x00, 0x00, 0x00, 0x00, 0x00, 0x00, 0x00, 0x00, 0x00, 0x00,
   0x00, 0x55, 0x00, 0x00, 0x55, 0x00, 0x00, 0x08, 0x00, 0x00, 0x1c, 0x00,
   0x00, 0x2a, 0x00, 0xa8, 0xa2, 0x0a, 0x00, 0x7f, 0x00, 0x00, 0x7f, 0x00,
   0x00, 0x7f, 0x00, 0x00, 0x7f, 0x00, 0x00, 0x08, 0x00, 0x00, 0x1c, 0x00,
   0x00, 0x3e, 0x00, 0xf8, 0xe3, 0x0f, 0x00, 0x7f, 0x00, 0x00, 0x7f, 0x00,
   0x33, 0x9e, 0xd9, 0xcc, 0x8c, 0x67, 0x36, 0xc0, 0x9b, 0x99, 0x01, 0x00,
   0x00, 0x00, 0x00, 0x00, 0x00, 0x00, 0x00, 0x00, 0x00, 0x00, 0x00, 0x00,
   0x00, 0x2a, 0x00, 0x00, 0x2a, 0x00, 0x00, 0x1c, 0x00, 0x00, 0x3e, 0x00,
   0x00, 0x14, 0x00, 0x50, 0x41, 0x05, 0x00, 0x3e, 0x00, 0x00, 0x7f, 0x00,
   0x00, 0x3e, 0x00, 0x00, 0x3e, 0x00, 0x00, 0x1c, 0x00, 0x00, 0x3e, 0x00,
   0x00, 0x1c, 0x00, 0xf0, 0xc1, 0x07, 0x00, 0x3e, 0x00, 0x00, 0x7f, 0x00,
   0x33, 0x9b, 0xd9, 0xcc, 0xcc, 0x66, 0x36, 0x60, 0x9b, 0x99, 0x01, 0x00,
   0x00, 0x00, 0x00, 0x00, 0x00, 0x00, 0x00, 0x00, 0x00, 0x00, 0x00, 0x00,
   0x00, 0x14, 0x00, 0x00, 0x14, 0x00, 0x00, 0x3e, 0x00, 0x00, 0x7f, 0x00,
   0x00, 0x08, 0x00, 0x00, 0x00, 0x00, 0x00, 0x1c, 0x00, 0x00, 0x3e, 0x00,
   0x00, 0x1c, 0x00, 0x00, 0x1c, 0x00, 0x00, 0x3e, 0x00, 0x00, 0x7f, 0x00,
   0x00, 0x08, 0x00, 0x00, 0x00, 0x00, 0x00, 0x1c, 0x00, 0x00, 0x3e, 0x00,
   0xbf, 0x19, 0xdf, 0xcf, 0x6f, 0xe6, 0x37, 0x30, 0xfb, 0x99, 0x01, 0x00,
   0x00, 0x00, 0x00, 0x00, 0x00, 0x00, 0x00, 0x00, 0x00, 0x00, 0x00, 0x00,
   0x00, 0x08, 0x00, 0x00, 0x08, 0x00, 0x00, 0x7f, 0x00, 0x80, 0xff, 0x00,
   0x00, 0x00, 0x00, 0x00, 0x00, 0x00, 0x00, 0x08, 0x00, 0x00, 0x1c, 0x00,
   0x00, 0x08, 0x00, 0x00, 0x08, 0x00, 0x00, 0x7f, 0x00, 0x80, 0xff, 0x00,
   0x00, 0x00, 0x00, 0x00, 0x00, 0x00, 0x00, 0x08, 0x00, 0x00, 0x1c, 0x00,
   0x9e, 0x19, 0x9e, 0x8f, 0x67, 0xc6, 0x33, 0x30, 0xf3, 0x98, 0x01, 0x00,
   0x00, 0x00, 0x00, 0x00, 0x00, 0x00, 0x00, 0x00, 0x00, 0x00, 0x00, 0x00,
   0x00, 0x00, 0x00, 0x00, 0x00, 0x00, 0x00, 0x00, 0x00, 0x00, 0x00, 0x00,
   0x00, 0x00, 0x00, 0x00, 0x00, 0x00, 0x00, 0x00, 0x00, 0x00, 0x00, 0x00,
   0x00, 0x00, 0x00, 0x00, 0x00, 0x00, 0x00, 0x00, 0x00, 0x00, 0x00, 0x00,
   0x00, 0x00, 0x00, 0x00, 0x00, 0x00, 0x00, 0x00, 0x00, 0x00, 0x00, 0x00,
   0x00, 0x00, 0x00, 0x00, 0x00, 0x00, 0x00, 0x00, 0x00, 0x00, 0x00, 0x00,
   0x00, 0x00, 0x00, 0x00, 0x00, 0x00, 0x00, 0x00, 0x00, 0x00, 0x00, 0x00,
   0x00, 0x00, 0x00, 0x00, 0x00, 0x00, 0x00, 0x00, 0x00, 0x00, 0x00, 0x00,
   0x00, 0x00, 0x00, 0x00, 0x00, 0x00, 0x00, 0x00, 0x00, 0x00, 0x00, 0x00,
   0x00, 0x00, 0x00, 0x00, 0x00, 0x00, 0x00, 0x00, 0x00, 0x00, 0x00, 0x00,
   0x00, 0x00, 0x00, 0x00, 0x00, 0x00, 0x00, 0x00, 0x00, 0x00, 0x00, 0x00,
   0xcc, 0xe3, 0xf1, 0xf8, 0xf1, 0x0c, 0x87, 0x07, 0x03, 0x00, 0x00, 0x00,
   0x00, 0x00, 0x00, 0x00, 0x00, 0x00, 0x00, 0x00, 0x00, 0x00, 0x00, 0x00,
   0x00, 0x00, 0x00, 0x00, 0x00, 0x00, 0x00, 0x00, 0x00, 0x00, 0x00, 0x00,
   0x00, 0x00, 0x00, 0x00, 0x00, 0x00, 0x00, 0x00, 0x00, 0x00, 0x00, 0x00,
   0x00, 0x00, 0x00, 0x00, 0x00, 0x00, 0x00, 0x00, 0x00, 0x00, 0x00, 0x00,
   0x00, 0x00, 0x00, 0x00, 0x00, 0x00, 0x00, 0x00, 0x00, 0x00, 0x00, 0x00,
   0xee, 0xf7, 0xfb, 0xf9, 0xf9, 0x8d, 0xc7, 0x0f, 0x03, 0x00, 0x00, 0x00,
   0x00, 0x00, 0x00, 0x00, 0x00, 0x00, 0x00, 0x00, 0x00, 0x00, 0x00, 0x00,
   0x00, 0x00, 0x00, 0x00, 0x00, 0x00, 0x00, 0x00, 0x00, 0x00, 0x00, 0x00,
   0x00, 0x00, 0x00, 0x00, 0x00, 0x00, 0x00, 0x00, 0x00, 0x00, 0x00, 0x00,
   0x00, 0x00, 0x00, 0x00, 0x00, 0x00, 0x00, 0x00, 0x00, 0x00, 0x00, 0x00,
   0x00, 0x00, 0x00, 0x00, 0x00, 0x00, 0x00, 0x00, 0x00, 0x00, 0x00, 0x00,
   0x6e, 0x36, 0x9b, 0x81, 0x99, 0xcd, 0xc1, 0x8c, 0x01, 0x00, 0x00, 0x00,
   0x00, 0x00, 0x00, 0x00, 0x00, 0x00, 0x00, 0x00, 0x00, 0x00, 0x00, 0x00,
   0x20, 0x40, 0x15, 0x20, 0x00, 0x02, 0x00, 0x00, 0x00, 0x00, 0x80, 0x0f,
   0x00, 0x00, 0x00, 0x00, 0x00, 0x00, 0x00, 0x00, 0x00, 0x00, 0x00, 0x00,
   0x20, 0xc0, 0x1d, 0x20, 0x00, 0x02, 0x00, 0x00, 0x00, 0x00, 0x80, 0x0f,
   0x00, 0x00, 0x00, 0x00, 0x00, 0x00, 0x00, 0x00, 0x00, 0x00, 0x00, 0x00,
   0x6c, 0xf6, 0x9b, 0xc1, 0x98, 0xcd, 0xc0, 0x8c, 0x01, 0x00, 0x00, 0x00,
   0x00, 0x00, 0x00, 0x00, 0x00, 0x00, 0x00, 0x00, 0x00, 0x00, 0x00, 0x00,
   0x50, 0xa0, 0x2a, 0x70, 0x00, 0x07, 0x20, 0x00, 0x00, 0xf8, 0x00, 0x07,
   0x00, 0x00, 0x00, 0x00, 0x00, 0x00, 0x00, 0x00, 0x00, 0x00, 0x00, 0x00,
   0x70, 0xe0, 0x3f, 0x70, 0x00, 0x07, 0x20, 0x00, 0x00, 0xf8, 0x00, 0x07,
   0x00, 0x00, 0x00, 0x00, 0x00, 0x00, 0x00, 0x00, 0x00, 0x00, 0x00, 0x00,
   0x6c, 0xe6, 0xf3, 0xc0, 0x98, 0xcd, 0x87, 0xc7, 0x00, 0x00, 0x00, 0x00,
   0x00, 0x00, 0x00, 0x00, 0x00, 0x00, 0x00, 0x00, 0x00, 0x00, 0x00, 0x00,
   0xa8, 0x40, 0x15, 0xf8, 0x80, 0x0f, 0x50, 0x00, 0x02, 0x70, 0x40, 0x12,
   0x00, 0x00, 0x00, 0x00, 0x00, 0x00, 0x00, 0x00, 0x00, 0x00, 0x00, 0x00,
   0xf8, 0xe0, 0x3f, 0xf8, 0x80, 0x0f, 0x70, 0x00, 0x02, 0x70, 0x40, 0x12,
   0x00, 0x00, 0x00, 0x00, 0x00, 0x00, 0x00, 0x00, 0x00, 0x00, 0x00, 0x00,
   0x6c, 0x06, 0x9b, 0x61, 0x98, 0xcd, 0xcf, 0xcc, 0x00, 0x00, 0x00, 0x00,
   0x00, 0x00, 0x00, 0x00, 0x00, 0x00, 0x00, 0x00, 0x00, 0x00, 0x00, 0x00,
   0x54, 0xa1, 0x2a, 0xfc, 0x41, 0x17, 0xa8, 0x00, 0x05, 0x20, 0xe0, 0x3a,
   0x00, 0x00, 0x00, 0x00, 0x00, 0x00, 0x00, 0x00, 0x00, 0x00, 0x00, 0x00,
   0xfc, 0xe1, 0x3f, 0xfc, 0x41, 0x17, 0xf8, 0x00, 0x07, 0x20, 0xe0, 0x3a,
   0x00, 0x00, 0x00, 0x00, 0x00, 0x00, 0x00, 0x00, 0x00, 0x00, 0x00, 0x00,
   0x6c, 0x86, 0x9b, 0x61, 0x98, 0xdd, 0xcc, 0x6c, 0x00, 0x00, 0x00, 0x00,
   0x00, 0x00, 0x00, 0x00, 0x00, 0x00, 0x00, 0x00, 0x00, 0x00, 0x00, 0x00,
   0xaa, 0x42, 0x15, 0xfc, 0xe1, 0x3a, 0x54, 0x81, 0x0a, 0xac, 0xf1, 0x7f,
   0x00, 0x00, 0x00, 0x00, 0x00, 0x00, 0x00, 0x00, 0x00, 0x00, 0x00, 0x00,
   0xfe, 0xc3, 0x1f, 0xfc, 0xe1, 0x3a, 0xfc, 0x81, 0x0f, 0xac, 0xf1, 0x7f,
   0x00, 0x00, 0x00, 0x00, 0x00, 0x00, 0x00, 0x00, 0x00, 0x00, 0x00, 0x00,
   0xec, 0xe7, 0xf9, 0x31, 0xf8, 0xdd, 0xcf, 0xef, 0x07, 0x00, 0x00, 0x00,
   0x00, 0x00, 0x00, 0x00, 0x00, 0x00, 0x00, 0x00, 0x00, 0x00, 0x00, 0x00,
   0x54, 0x81, 0x0a, 0xac, 0xf1, 0x7f, 0xaa, 0x42, 0x15, 0xfc, 0xe1, 0x3a,
   0x00, 0x00, 0x00, 0x00, 0x00, 0x00, 0x00, 0x00, 0x00, 0x00, 0x00, 0x00,
   0xfc, 0x81, 0x0f, 0xac, 0xf1, 0x7f, 0xfe, 0xc3, 0x1f, 0xfc, 0xe1, 0x3a,
   0x00, 0x00, 0x00, 0x00, 0x00, 0x00, 0x00, 0x00, 0x00, 0x00, 0x00, 0x00,
   0xcc, 0xe3, 0xf0, 0x30, 0xf0, 0x8c, 0x87, 0xe7, 0x07, 0x00, 0x00, 0x00,
   0x00, 0x00, 0x00, 0x00, 0x00, 0x00, 0x00, 0x00, 0x00, 0x00, 0x00, 0x00,
   0xa8, 0x00, 0x05, 0x20, 0xe0, 0x3a, 0x54, 0xa1, 0x2a, 0xfc, 0x41, 0x17,
   0x00, 0x00, 0x00, 0x00, 0x00, 0x00, 0x00, 0x00, 0x00, 0x00, 0x00, 0x00,
   0xf8, 0x00, 0x07, 0x20, 0xe0, 0x3a, 0xfc, 0xe1, 0x3f, 0xfc, 0x41, 0x17,
   0x00, 0x00, 0x00, 0x00, 0x00, 0x00, 0x00, 0x00, 0x00, 0x00, 0x00, 0x00,
   0x00, 0x00, 0x00, 0x00, 0x00, 0x00, 0x00, 0x00, 0x00, 0x00, 0x00, 0x00,
   0x00, 0x00, 0x00, 0x00, 0x00, 0x00, 0x00, 0x00, 0x00, 0x00, 0x00, 0x00,
   0x50, 0x00, 0x02, 0x70, 0x40, 0x12, 0xa8, 0x40, 0x15, 0xf8, 0x80, 0x0f,
   0x00, 0x00, 0x00, 0x00, 0x00, 0x00, 0x00, 0x00, 0x00, 0x00, 0x00, 0x00,
   0x70, 0x00, 0x02, 0x70, 0x40, 0x12, 0xf8, 0xe0, 0x3f, 0xf8, 0x80, 0x0f,
   0x00, 0x00, 0x00, 0x00, 0x00, 0x00, 0x00, 0x00, 0x00, 0x00, 0x00, 0x00,
   0x00, 0x00, 0x00, 0x00, 0x00, 0x00, 0x00, 0x00, 0x00, 0x00, 0x00, 0x00,
   0x00, 0x00, 0x00, 0x00, 0x00, 0x00, 0x00, 0x00, 0x00, 0x00, 0x00, 0x00,
   0x20, 0x00, 0x00, 0xf8, 0x00, 0x07, 0x50, 0xa0, 0x2a, 0x70, 0x00, 0x07,
   0x00, 0x00, 0x00, 0x00, 0x00, 0x00, 0x00, 0x00, 0x00, 0x00, 0x00, 0x00,
   0x20, 0x00, 0x00, 0xf8, 0x00, 0x07, 0x70, 0xe0, 0x3f, 0x70, 0x00, 0x07,
   0x00, 0x00, 0x00, 0x00, 0x00, 0x00, 0x00, 0x00, 0x00, 0x00, 0x00, 0x00,
   0x00, 0x00, 0x00, 0x00, 0x00, 0x00, 0x00, 0x00, 0x00, 0x00, 0x00, 0x00,
   0x00, 0x00, 0x00, 0x00, 0x00, 0x00, 0x00, 0x00, 0x00, 0x00, 0x00, 0x00,
   0x00, 0x00, 0x00, 0x00, 0x80, 0x0f, 0x20, 0x40, 0x15, 0x20, 0x00, 0x02,
   0x00, 0x00, 0x00, 0x00, 0x00, 0x00, 0x00, 0x00, 0x00, 0x00, 0x00, 0x00,
   0x00, 0x00, 0x00, 0x00, 0x80, 0x0f, 0x20, 0xc0, 0x1d, 0x20, 0x00, 0x02,
   0x00, 0x00, 0x00, 0x00, 0x00, 0x00, 0x00, 0x00, 0x00, 0x00, 0x00, 0x00,
   0x00, 0x00, 0x00, 0x00, 0x00, 0x00, 0x00, 0x00, 0x00, 0x00, 0x00, 0x00,
   0x00, 0x00, 0x00, 0x00, 0x00, 0x00, 0x00, 0x00, 0x00, 0x00, 0x00, 0x00,
   0x00, 0x00, 0x00, 0x00, 0x00, 0x00, 0x00, 0x00, 0x00, 0x00, 0x00, 0x00,
   0x00, 0x00, 0x00, 0x00, 0x00, 0x00, 0x00, 0x00, 0x00, 0x00, 0x00, 0x00,
   0x00, 0x00, 0x00, 0x00, 0x00, 0x00, 0x00, 0x00, 0x00, 0x00, 0x00, 0x00,
   0x00, 0x00, 0x00, 0x00, 0x00, 0x00, 0x00, 0x00, 0x00, 0x00, 0x00, 0x00,
   0x00, 0x00, 0x00, 0x00, 0x00, 0x00, 0x00, 0x00, 0x00, 0x00, 0x00, 0x00,
   0x00, 0x00, 0x00, 0x00, 0x00, 0x00, 0x00, 0x00, 0x00, 0x00, 0x00, 0x00,
   0x00, 0x00, 0x00, 0x00, 0x00, 0x00, 0x00, 0x00, 0x00, 0x00, 0x00, 0x00,
   0x00, 0x00, 0x00, 0x00, 0x00, 0x00, 0x00, 0x00, 0x00, 0x00, 0x00, 0x00,
   0x00, 0x00, 0x00, 0x00, 0x00, 0x00, 0x00, 0x00, 0x00, 0x00, 0x00, 0x00,
   0x00, 0x00, 0x00, 0x00, 0x00, 0x00, 0x00, 0x00, 0x00, 0x00, 0x00, 0x00,
   0x00, 0x00, 0x00, 0x00, 0x00, 0x00, 0x00, 0x00, 0x00, 0x00, 0x00, 0x00,
   0x00, 0x00, 0x00, 0x00, 0x00, 0x00, 0x00, 0x00, 0x00, 0x00, 0x00, 0x00,
   0x00, 0x00, 0x00, 0x00, 0x00, 0x00, 0x00, 0x00, 0x00, 0x00, 0x00, 0x00,
   0x00, 0x00, 0x00, 0x00, 0x00, 0x00, 0x00, 0x00, 0x00, 0x00, 0x00, 0x00,
   0x00, 0x00, 0x00, 0x00, 0x00, 0x00, 0x00, 0x00, 0x00, 0x00, 0x00, 0x00,
   0x00, 0x00, 0x00, 0x00, 0x00, 0x00, 0x00, 0x00, 0x00, 0x00, 0x00, 0x00,
   0x00, 0x00, 0x00, 0x00, 0x00, 0x00, 0x00, 0x00, 0x00, 0x00, 0x00, 0x00,
   0x00, 0x00, 0x00, 0x00, 0x00, 0x00, 0x00, 0x00, 0x00, 0x00, 0x00, 0x00,
   0x00, 0x00, 0x00, 0x00, 0x00, 0x00, 0x00, 0x00, 0x00, 0x00, 0x00, 0x00,
   0x00, 0x00, 0x00, 0x00, 0x00, 0x00, 0x00, 0x00, 0x00, 0x00, 0x00, 0x00,
   0x00, 0x00, 0x00, 0x00, 0x00, 0x00, 0x00, 0x00, 0x00, 0x00, 0x00, 0x00,
   0x00, 0x00, 0x00, 0x00, 0x00, 0x00, 0x00, 0x00, 0x00, 0x00, 0x00, 0x00,
   0x00, 0x00, 0x00, 0x00, 0x00, 0x00, 0x00, 0x00, 0x00, 0x00, 0x00, 0x00,
   0x00, 0x00, 0x00, 0x00, 0x00, 0x00, 0x00, 0x00, 0x00, 0x00, 0x00, 0x00,
   0x00, 0x00, 0x00, 0x00, 0x00, 0x00, 0x00, 0x00, 0x00, 0x00, 0x00, 0x00,
   0x00, 0x00, 0x00, 0x00, 0x00, 0x00, 0x00, 0x00, 0x00, 0x00, 0x00, 0x00,
   0x00, 0x00, 0x00, 0x00, 0x00, 0x00, 0x00, 0x00, 0x00, 0x00, 0x00, 0x00,
   0x00, 0x00, 0x00, 0x00, 0x00, 0x00, 0x00, 0x00, 0x00, 0x00, 0x00, 0x00,
   0x00, 0x00, 0x00, 0x00, 0x00, 0x00, 0x00, 0x00, 0x00, 0x00, 0x00, 0x00,
   0x00, 0x00, 0x00, 0x00, 0x00, 0x00, 0x00, 0x00, 0x00, 0x00, 0x00, 0x00};
