#define symbs_width 384
#define symbs_height 26
static unsigned char symbs_bits[] = {
   0x00, 0x00, 0x00, 0x00, 0x00, 0x00, 0x00, 0x00, 0x00, 0x00, 0x00, 0x00,
   0x00, 0x00, 0x00, 0x00, 0x00, 0x00, 0x00, 0x00, 0x00, 0x00, 0x00, 0x00,
   0x00, 0x00, 0x00, 0x00, 0x00, 0x00, 0x00, 0x00, 0x00, 0x00, 0x00, 0x00,
   0x00, 0x00, 0x00, 0x00, 0x00, 0x00, 0x00, 0x00, 0x00, 0x00, 0x00, 0x00,
   0x80, 0x00, 0x00, 0x00, 0x00, 0x00, 0x00, 0x00, 0x00, 0x00, 0x00, 0x00,
   0x00, 0x00, 0x00, 0x00, 0x80, 0x00, 0x00, 0x00, 0x00, 0x00, 0x00, 0x00,
   0x00, 0x00, 0x00, 0x00, 0x00, 0x00, 0x00, 0x00, 0x26, 0x9d, 0x63, 0x92,
   0x41, 0xc9, 0x24, 0x00, 0x00, 0x00, 0x00, 0x00, 0x00, 0x00, 0x00, 0x00,
   0x40, 0x01, 0x00, 0x00, 0x80, 0x00, 0xc0, 0x01, 0x80, 0x00, 0x80, 0x00,
   0xe0, 0x03, 0xf0, 0x07, 0xc0, 0x01, 0x00, 0x00, 0x80, 0x00, 0xc0, 0x01,
   0x80, 0x00, 0x80, 0x00, 0xe0, 0x03, 0xf0, 0x07, 0xa9, 0xa4, 0x94, 0x4a,
   0x42, 0x25, 0x25, 0x00, 0x00, 0x00, 0x00, 0x00, 0x00, 0x00, 0x00, 0x00,
   0xa0, 0x02, 0x28, 0x0a, 0xc0, 0x01, 0xe0, 0x03, 0x40, 0x01, 0x40, 0x01,
   0xc0, 0x01, 0xe0, 0x03, 0xe0, 0x03, 0x38, 0x0e, 0xc0, 0x01, 0xe0, 0x03,
   0xc0, 0x01, 0xc0, 0x01, 0xc0, 0x01, 0xe0, 0x03, 0x6f, 0xa4, 0xf3, 0x46,
   0x42, 0x23, 0x25, 0x00, 0x00, 0x00, 0x00, 0x00, 0x00, 0x00, 0x00, 0x00,
   0x50, 0x05, 0x54, 0x15, 0xe0, 0x03, 0xe0, 0x03, 0xa0, 0x02, 0xa0, 0x02,
   0x80, 0x00, 0xc0, 0x01, 0xf0, 0x07, 0x7c, 0x1f, 0xe0, 0x03, 0xe0, 0x03,
   0xe0, 0x03, 0xe0, 0x03, 0x80, 0x00, 0xc0, 0x01, 0x69, 0xa4, 0x94, 0x46,
   0x42, 0x23, 0x25, 0x00, 0x00, 0x00, 0x00, 0x00, 0x00, 0x00, 0x00, 0x00,
   0xa8, 0x0a, 0xaa, 0x2a, 0xf8, 0x0f, 0xe0, 0x03, 0x50, 0x05, 0x50, 0x05,
   0xbc, 0x1e, 0x9c, 0x1c, 0xf8, 0x0f, 0xfe, 0x3f, 0xf8, 0x0f, 0xe0, 0x03,
   0xf0, 0x07, 0xf0, 0x07, 0xbc, 0x1e, 0x9c, 0x1c, 0xa9, 0xa4, 0x94, 0x4a,
   0x4b, 0x25, 0x25, 0x00, 0x00, 0x00, 0x00, 0x00, 0x00, 0x00, 0x00, 0x00,
   0x54, 0x15, 0x54, 0x15, 0xfc, 0x1f, 0xdc, 0x1d, 0xa8, 0x0a, 0xa8, 0x0a,
   0xfe, 0x3f, 0xbe, 0x3e, 0xfc, 0x1f, 0xfe, 0x3f, 0xfc, 0x1f, 0xdc, 0x1d,
   0xf8, 0x0f, 0xf8, 0x0f, 0xfe, 0x3f, 0xbe, 0x3e, 0x29, 0x9d, 0x93, 0x92,
   0x33, 0xc9, 0x18, 0x00, 0x00, 0x00, 0x00, 0x00, 0x00, 0x00, 0x00, 0x00,
   0xaa, 0x2a, 0xaa, 0x2a, 0xfe, 0x3f, 0xbe, 0x3e, 0x54, 0x15, 0x54, 0x15,
   0xfe, 0x3f, 0xfe, 0x3f, 0xfe, 0x3f, 0xfe, 0x3f, 0xfe, 0x3f, 0xbe, 0x3e,
   0xfc, 0x1f, 0xfc, 0x1f, 0xfe, 0x3f, 0xfe, 0x3f, 0x00, 0x00, 0x00, 0x00,
   0x00, 0x00, 0x00, 0x00, 0x00, 0x00, 0x00, 0x00, 0x00, 0x00, 0x00, 0x00,
   0x54, 0x15, 0x54, 0x15, 0xfe, 0x3f, 0xfe, 0x3f, 0xaa, 0x2a, 0xaa, 0x2a,
   0xfe, 0x3f, 0xbe, 0x3e, 0xfc, 0x1f, 0xfc, 0x1f, 0xfe, 0x3f, 0xfe, 0x3f,
   0xfe, 0x3f, 0xfe, 0x3f, 0xfe, 0x3f, 0xbe, 0x3e, 0x29, 0x39, 0x97, 0xd2,
   0x31, 0xc9, 0x18, 0x00, 0x00, 0x00, 0x00, 0x00, 0x00, 0x00, 0x00, 0x00,
   0xa8, 0x0a, 0xa8, 0x0a, 0xfe, 0x3f, 0xbe, 0x3e, 0x54, 0x15, 0x54, 0x15,
   0xfc, 0x1f, 0xdc, 0x1d, 0xf8, 0x0f, 0xf8, 0x0f, 0xfe, 0x3f, 0xbe, 0x3e,
   0xfc, 0x1f, 0xfe, 0x3f, 0xfc, 0x1f, 0xdc, 0x1d, 0x49, 0xa5, 0x94, 0xd4,
   0x4a, 0x2a, 0x25, 0x00, 0x00, 0x00, 0x00, 0x00, 0x00, 0x00, 0x00, 0x00,
   0x50, 0x05, 0x50, 0x05, 0xbc, 0x1e, 0x9c, 0x1c, 0xa8, 0x0a, 0xaa, 0x2a,
   0xf8, 0x0f, 0xe0, 0x03, 0xf0, 0x07, 0xf0, 0x07, 0xbc, 0x1e, 0x9c, 0x1c,
   0xf8, 0x0f, 0xfe, 0x3f, 0xf8, 0x0f, 0xe0, 0x03, 0x89, 0xa5, 0x94, 0x58,
   0x0a, 0x2c, 0x25, 0x00, 0x00, 0x00, 0x00, 0x00, 0x00, 0x00, 0x00, 0x00,
   0xa0, 0x02, 0xa0, 0x02, 0x80, 0x00, 0xc0, 0x01, 0x50, 0x05, 0x54, 0x15,
   0xe0, 0x03, 0xe0, 0x03, 0xe0, 0x03, 0xe0, 0x03, 0x80, 0x00, 0xc0, 0x01,
   0xf0, 0x07, 0x7c, 0x1f, 0xe0, 0x03, 0xe0, 0x03, 0x8f, 0x25, 0xf7, 0x58,
   0x0a, 0x2c, 0x25, 0x00, 0x00, 0x00, 0x00, 0x00, 0x00, 0x00, 0x00, 0x00,
   0x40, 0x01, 0x40, 0x01, 0xc0, 0x01, 0xe0, 0x03, 0xa0, 0x02, 0x28, 0x0a,
   0xc0, 0x01, 0xe0, 0x03, 0xc0, 0x01, 0xc0, 0x01, 0xc0, 0x01, 0xe0, 0x03,
   0xe0, 0x03, 0x38, 0x0e, 0xc0, 0x01, 0xe0, 0x03, 0x49, 0xa5, 0x94, 0x54,
   0x0a, 0x2a, 0x25, 0x00, 0x00, 0x00, 0x00, 0x00, 0x00, 0x00, 0x00, 0x00,
   0x80, 0x00, 0x80, 0x00, 0xe0, 0x03, 0xf0, 0x07, 0x40, 0x01, 0x00, 0x00,
   0x80, 0x00, 0xc0, 0x01, 0x80, 0x00, 0x80, 0x00, 0xe0, 0x03, 0xf0, 0x07,
   0xc0, 0x01, 0x00, 0x00, 0x80, 0x00, 0xc0, 0x01, 0x26, 0x39, 0x67, 0x92,
   0x09, 0xc9, 0x24, 0x00, 0x00, 0x00, 0x00, 0x00, 0x00, 0x00, 0x00, 0x00,
   0x00, 0x00, 0x00, 0x00, 0x00, 0x00, 0x00, 0x00, 0x80, 0x00, 0x00, 0x00,
   0x00, 0x00, 0x00, 0x00, 0x00, 0x00, 0x00, 0x00, 0x00, 0x00, 0x00, 0x00,
   0x80, 0x00, 0x00, 0x00, 0x00, 0x00, 0x00, 0x00, 0x00, 0x00, 0x00, 0x00,
   0x00, 0x00, 0x00, 0x00, 0x00, 0x00, 0x00, 0x00, 0x00, 0x00, 0x00, 0x00,
   0x00, 0x00, 0x00, 0x00, 0x00, 0x00, 0x00, 0x00, 0x00, 0x00, 0x00, 0x00,
   0x00, 0x00, 0x00, 0x00, 0x00, 0x00, 0x00, 0x00, 0x00, 0x00, 0x00, 0x00,
   0x00, 0x00, 0x00, 0x00, 0x00, 0x00, 0x00, 0x00, 0x32, 0xc6, 0x3c, 0x13,
   0x63, 0x08, 0x00, 0x00, 0x00, 0x00, 0x00, 0x00, 0x00, 0x00, 0x00, 0x00,
   0x00, 0x00, 0x00, 0x00, 0x00, 0x00, 0x00, 0x1c, 0x00, 0x00, 0x00, 0x00,
   0x00, 0x00, 0x00, 0x00, 0x00, 0x00, 0x00, 0x00, 0x00, 0x00, 0x00, 0x1c,
   0x00, 0x00, 0x00, 0x00, 0x00, 0x00, 0x00, 0x00, 0x4b, 0x29, 0xa1, 0x94,
   0x90, 0x08, 0x00, 0x00, 0x00, 0x00, 0x00, 0x00, 0x00, 0x00, 0x00, 0x00,
   0x08, 0x00, 0x08, 0x08, 0x00, 0x00, 0x1c, 0x08, 0x00, 0x00, 0x00, 0x00,
   0x00, 0x00, 0x00, 0x00, 0x08, 0x00, 0x08, 0x08, 0x00, 0x00, 0x1c, 0x08,
   0x00, 0x00, 0x00, 0x00, 0x00, 0x00, 0x00, 0x00, 0x4a, 0xce, 0x90, 0x94,
   0x90, 0x04, 0x00, 0x00, 0x00, 0x00, 0x00, 0x00, 0x00, 0x00, 0x00, 0x00,
   0x14, 0x36, 0x1c, 0x1c, 0x08, 0x08, 0x08, 0x2a, 0x00, 0x00, 0x00, 0x00,
   0x00, 0x00, 0x00, 0x00, 0x1c, 0x36, 0x1c, 0x1c, 0x08, 0x08, 0x08, 0x2a,
   0x00, 0x00, 0x00, 0x00, 0x00, 0x00, 0x00, 0x00, 0x4a, 0x28, 0x91, 0x94,
   0x63, 0x04, 0x00, 0x00, 0x00, 0x00, 0x00, 0x00, 0x00, 0x00, 0x00, 0x00,
   0x2a, 0x2a, 0x3e, 0x2a, 0x14, 0x14, 0x3e, 0x7f, 0x00, 0x00, 0x00, 0x00,
   0x00, 0x00, 0x00, 0x00, 0x3e, 0x3e, 0x3e, 0x2a, 0x1c, 0x1c, 0x3e, 0x7f,
   0x00, 0x00, 0x00, 0x00, 0x00, 0x00, 0x00, 0x00, 0x4a, 0x28, 0x89, 0xb4,
   0x94, 0x02, 0x00, 0x00, 0x00, 0x00, 0x00, 0x00, 0x00, 0x00, 0x00, 0x00,
   0x14, 0x14, 0x3e, 0x7f, 0x2a, 0x2a, 0x3e, 0x2a, 0x00, 0x00, 0x00, 0x00,
   0x00, 0x00, 0x00, 0x00, 0x1c, 0x1c, 0x3e, 0x7f, 0x3e, 0x3e, 0x3e, 0x2a,
   0x00, 0x00, 0x00, 0x00, 0x00, 0x00, 0x00, 0x00, 0x32, 0xc6, 0x08, 0x13,
   0x63, 0x1e, 0x00, 0x00, 0x00, 0x00, 0x00, 0x00, 0x00, 0x00, 0x00, 0x00,
   0x08, 0x08, 0x08, 0x2a, 0x14, 0x36, 0x1c, 0x1c, 0x00, 0x00, 0x00, 0x00,
   0x00, 0x00, 0x00, 0x00, 0x08, 0x08, 0x08, 0x2a, 0x1c, 0x36, 0x1c, 0x1c,
   0x00, 0x00, 0x00, 0x00, 0x00, 0x00, 0x00, 0x00, 0x00, 0x00, 0x00, 0x00,
   0x00, 0x00, 0x00, 0x00, 0x00, 0x00, 0x00, 0x00, 0x00, 0x00, 0x00, 0x00,
   0x00, 0x00, 0x1c, 0x08, 0x08, 0x00, 0x08, 0x08, 0x00, 0x00, 0x00, 0x00,
   0x00, 0x00, 0x00, 0x00, 0x00, 0x00, 0x1c, 0x08, 0x08, 0x00, 0x08, 0x08,
   0x00, 0x00, 0x00, 0x00, 0x00, 0x00, 0x00, 0x00, 0x00, 0x00, 0x00, 0x00,
   0x00, 0x00, 0x00, 0x00, 0x00, 0x00, 0x00, 0x00, 0x00, 0x00, 0x00, 0x00,
   0x00, 0x00, 0x00, 0x1c, 0x00, 0x00, 0x00, 0x00, 0x00, 0x00, 0x00, 0x00,
   0x00, 0x00, 0x00, 0x00, 0x00, 0x00, 0x00, 0x1c, 0x00, 0x00, 0x00, 0x00,
   0x00, 0x00, 0x00, 0x00, 0x00, 0x00, 0x00, 0x00, 0x00, 0x00, 0x00, 0x00,
   0x00, 0x00, 0x00, 0x00, 0x00, 0x00, 0x00, 0x00, 0x00, 0x00, 0x00, 0x00,
   0x00, 0x00, 0x00, 0x00, 0x00, 0x00, 0x00, 0x00, 0x00, 0x00, 0x00, 0x00,
   0x00, 0x00, 0x00, 0x00, 0x00, 0x00, 0x00, 0x00, 0x00, 0x00, 0x00, 0x00,
   0x00, 0x00, 0x00, 0x00, 0x00, 0x00, 0x00, 0x00, 0x00, 0x00, 0x00, 0x00,
   0x00, 0x00, 0x00, 0x00, 0x00, 0x00, 0x00, 0x00, 0x00, 0x00, 0x00, 0x00,
   0x00, 0x00, 0x00, 0x00, 0x00, 0x00, 0x00, 0x00, 0x00, 0x00, 0x00, 0x00,
   0x00, 0x00, 0x00, 0x00, 0x00, 0x00, 0x00, 0x00, 0x00, 0x00, 0x00, 0x00,
   0x00, 0x00, 0x00, 0x00, 0x00, 0x00, 0x00, 0x00, 0x00, 0x00, 0x00, 0x00,
   0x00, 0x00, 0x00, 0x00, 0x00, 0x00, 0x00, 0x00, 0x00, 0x00, 0x00, 0x00};
